<?xml version="1.0" encoding="utf-8" standalone="no"?>
<!DOCTYPE svg PUBLIC "-//W3C//DTD SVG 1.1//EN"
  "http://www.w3.org/Graphics/SVG/1.1/DTD/svg11.dtd">
<svg xmlns:xlink="http://www.w3.org/1999/xlink" width="432pt" height="288pt" viewBox="0 0 432 288" xmlns="http://www.w3.org/2000/svg" version="1.1">
 <metadata>
  <rdf:RDF xmlns:dc="http://purl.org/dc/elements/1.1/" xmlns:cc="http://creativecommons.org/ns#" xmlns:rdf="http://www.w3.org/1999/02/22-rdf-syntax-ns#">
   <cc:Work>
    <dc:type rdf:resource="http://purl.org/dc/dcmitype/StillImage"/>
    <dc:date>2024-03-25T20:20:14.148242</dc:date>
    <dc:format>image/svg+xml</dc:format>
    <dc:creator>
     <cc:Agent>
      <dc:title>Matplotlib v3.7.2, https://matplotlib.org/</dc:title>
     </cc:Agent>
    </dc:creator>
   </cc:Work>
  </rdf:RDF>
 </metadata>
 <defs>
  <style type="text/css">*{stroke-linejoin: round; stroke-linecap: butt}</style>
 </defs>
 <g id="figure_1">
  <g id="patch_1">
   <path d="M 0 288 
L 432 288 
L 432 0 
L 0 0 
z
" style="fill: #ffffff"/>
  </g>
  <g id="axes_1">
   <g id="patch_2">
    <path d="M 54 256.32 
L 388.8 256.32 
L 388.8 34.56 
L 54 34.56 
z
" style="fill: #ffffff"/>
   </g>
   <g id="patch_3">
    <path d="M 69.218182 256.32 
L 70.407102 256.32 
L 70.407102 254.723299 
L 69.218182 254.723299 
z
" clip-path="url(#p2213b4cafd)" style="fill: #808080"/>
   </g>
   <g id="patch_4">
    <path d="M 70.407102 256.32 
L 71.596023 256.32 
L 71.596023 255.086186 
L 70.407102 255.086186 
z
" clip-path="url(#p2213b4cafd)" style="fill: #808080"/>
   </g>
   <g id="patch_5">
    <path d="M 71.596023 256.32 
L 72.784943 256.32 
L 72.784943 254.868454 
L 71.596023 254.868454 
z
" clip-path="url(#p2213b4cafd)" style="fill: #808080"/>
   </g>
   <g id="patch_6">
    <path d="M 72.784943 256.32 
L 73.973864 256.32 
L 73.973864 254.723299 
L 72.784943 254.723299 
z
" clip-path="url(#p2213b4cafd)" style="fill: #808080"/>
   </g>
   <g id="patch_7">
    <path d="M 73.973864 256.32 
L 75.162784 256.32 
L 75.162784 253.271753 
L 73.973864 253.271753 
z
" clip-path="url(#p2213b4cafd)" style="fill: #808080"/>
   </g>
   <g id="patch_8">
    <path d="M 75.162784 256.32 
L 76.351705 256.32 
L 76.351705 253.562062 
L 75.162784 253.562062 
z
" clip-path="url(#p2213b4cafd)" style="fill: #808080"/>
   </g>
   <g id="patch_9">
    <path d="M 76.351705 256.32 
L 77.540625 256.32 
L 77.540625 250.949278 
L 76.351705 250.949278 
z
" clip-path="url(#p2213b4cafd)" style="fill: #808080"/>
   </g>
   <g id="patch_10">
    <path d="M 77.540625 256.32 
L 78.729545 256.32 
L 78.729545 251.45732 
L 77.540625 251.45732 
z
" clip-path="url(#p2213b4cafd)" style="fill: #808080"/>
   </g>
   <g id="patch_11">
    <path d="M 78.729545 256.32 
L 79.918466 256.32 
L 79.918466 248.771959 
L 78.729545 248.771959 
z
" clip-path="url(#p2213b4cafd)" style="fill: #808080"/>
   </g>
   <g id="patch_12">
    <path d="M 79.918466 256.32 
L 81.107386 256.32 
L 81.107386 249.134845 
L 79.918466 249.134845 
z
" clip-path="url(#p2213b4cafd)" style="fill: #808080"/>
   </g>
   <g id="patch_13">
    <path d="M 81.107386 256.32 
L 82.296307 256.32 
L 82.296307 246.667216 
L 81.107386 246.667216 
z
" clip-path="url(#p2213b4cafd)" style="fill: #808080"/>
   </g>
   <g id="patch_14">
    <path d="M 82.296307 256.32 
L 83.485227 256.32 
L 83.485227 245.288247 
L 82.296307 245.288247 
z
" clip-path="url(#p2213b4cafd)" style="fill: #808080"/>
   </g>
   <g id="patch_15">
    <path d="M 83.485227 256.32 
L 84.674148 256.32 
L 84.674148 239.844948 
L 83.485227 239.844948 
z
" clip-path="url(#p2213b4cafd)" style="fill: #808080"/>
   </g>
   <g id="patch_16">
    <path d="M 84.674148 256.32 
L 85.863068 256.32 
L 85.863068 240.06268 
L 84.674148 240.06268 
z
" clip-path="url(#p2213b4cafd)" style="fill: #808080"/>
   </g>
   <g id="patch_17">
    <path d="M 85.863068 256.32 
L 87.051989 256.32 
L 87.051989 233.675876 
L 85.863068 233.675876 
z
" clip-path="url(#p2213b4cafd)" style="fill: #808080"/>
   </g>
   <g id="patch_18">
    <path d="M 87.051989 256.32 
L 88.240909 256.32 
L 88.240909 233.966186 
L 87.051989 233.966186 
z
" clip-path="url(#p2213b4cafd)" style="fill: #808080"/>
   </g>
   <g id="patch_19">
    <path d="M 88.240909 256.32 
L 89.42983 256.32 
L 89.42983 221.192577 
L 88.240909 221.192577 
z
" clip-path="url(#p2213b4cafd)" style="fill: #808080"/>
   </g>
   <g id="patch_20">
    <path d="M 89.42983 256.32 
L 90.61875 256.32 
L 90.61875 223.369897 
L 89.42983 223.369897 
z
" clip-path="url(#p2213b4cafd)" style="fill: #808080"/>
   </g>
   <g id="patch_21">
    <path d="M 90.61875 256.32 
L 91.80767 256.32 
L 91.80767 212.338144 
L 90.61875 212.338144 
z
" clip-path="url(#p2213b4cafd)" style="fill: #808080"/>
   </g>
   <g id="patch_22">
    <path d="M 91.80767 256.32 
L 92.996591 256.32 
L 92.996591 213.789691 
L 91.80767 213.789691 
z
" clip-path="url(#p2213b4cafd)" style="fill: #808080"/>
   </g>
   <g id="patch_23">
    <path d="M 92.996591 256.32 
L 94.185511 256.32 
L 94.185511 204.86268 
L 92.996591 204.86268 
z
" clip-path="url(#p2213b4cafd)" style="fill: #808080"/>
   </g>
   <g id="patch_24">
    <path d="M 94.185511 256.32 
L 95.374432 256.32 
L 95.374432 203.774021 
L 94.185511 203.774021 
z
" clip-path="url(#p2213b4cafd)" style="fill: #808080"/>
   </g>
   <g id="patch_25">
    <path d="M 95.374432 256.32 
L 96.563352 256.32 
L 96.563352 199.782268 
L 95.374432 199.782268 
z
" clip-path="url(#p2213b4cafd)" style="fill: #808080"/>
   </g>
   <g id="patch_26">
    <path d="M 96.563352 256.32 
L 97.752273 256.32 
L 97.752273 198.91134 
L 96.563352 198.91134 
z
" clip-path="url(#p2213b4cafd)" style="fill: #808080"/>
   </g>
   <g id="patch_27">
    <path d="M 97.752273 256.32 
L 98.941193 256.32 
L 98.941193 194.484124 
L 97.752273 194.484124 
z
" clip-path="url(#p2213b4cafd)" style="fill: #808080"/>
   </g>
   <g id="patch_28">
    <path d="M 98.941193 256.32 
L 100.130114 256.32 
L 100.130114 197.677526 
L 98.941193 197.677526 
z
" clip-path="url(#p2213b4cafd)" style="fill: #808080"/>
   </g>
   <g id="patch_29">
    <path d="M 100.130114 256.32 
L 101.319034 256.32 
L 101.319034 196.661443 
L 100.130114 196.661443 
z
" clip-path="url(#p2213b4cafd)" style="fill: #808080"/>
   </g>
   <g id="patch_30">
    <path d="M 101.319034 256.32 
L 102.507955 256.32 
L 102.507955 194.84701 
L 101.319034 194.84701 
z
" clip-path="url(#p2213b4cafd)" style="fill: #808080"/>
   </g>
   <g id="patch_31">
    <path d="M 102.507955 256.32 
L 103.696875 256.32 
L 103.696875 200.580619 
L 102.507955 200.580619 
z
" clip-path="url(#p2213b4cafd)" style="fill: #808080"/>
   </g>
   <g id="patch_32">
    <path d="M 103.696875 256.32 
L 104.885795 256.32 
L 104.885795 206.749691 
L 103.696875 206.749691 
z
" clip-path="url(#p2213b4cafd)" style="fill: #808080"/>
   </g>
   <g id="patch_33">
    <path d="M 104.885795 256.32 
L 106.074716 256.32 
L 106.074716 208.636701 
L 104.885795 208.636701 
z
" clip-path="url(#p2213b4cafd)" style="fill: #808080"/>
   </g>
   <g id="patch_34">
    <path d="M 106.074716 256.32 
L 107.263636 256.32 
L 107.263636 210.814021 
L 106.074716 210.814021 
z
" clip-path="url(#p2213b4cafd)" style="fill: #808080"/>
   </g>
   <g id="patch_35">
    <path d="M 107.263636 256.32 
L 108.452557 256.32 
L 108.452557 217.781443 
L 107.263636 217.781443 
z
" clip-path="url(#p2213b4cafd)" style="fill: #808080"/>
   </g>
   <g id="patch_36">
    <path d="M 108.452557 256.32 
L 109.641477 256.32 
L 109.641477 217.926598 
L 108.452557 217.926598 
z
" clip-path="url(#p2213b4cafd)" style="fill: #808080"/>
   </g>
   <g id="patch_37">
    <path d="M 109.641477 256.32 
L 110.830398 256.32 
L 110.830398 221.555464 
L 109.641477 221.555464 
z
" clip-path="url(#p2213b4cafd)" style="fill: #808080"/>
   </g>
   <g id="patch_38">
    <path d="M 110.830398 256.32 
L 112.019318 256.32 
L 112.019318 220.466804 
L 110.830398 220.466804 
z
" clip-path="url(#p2213b4cafd)" style="fill: #808080"/>
   </g>
   <g id="patch_39">
    <path d="M 112.019318 256.32 
L 113.208239 256.32 
L 113.208239 223.224742 
L 112.019318 223.224742 
z
" clip-path="url(#p2213b4cafd)" style="fill: #808080"/>
   </g>
   <g id="patch_40">
    <path d="M 113.208239 256.32 
L 114.397159 256.32 
L 114.397159 224.821443 
L 113.208239 224.821443 
z
" clip-path="url(#p2213b4cafd)" style="fill: #808080"/>
   </g>
   <g id="patch_41">
    <path d="M 114.397159 256.32 
L 115.58608 256.32 
L 115.58608 224.894021 
L 114.397159 224.894021 
z
" clip-path="url(#p2213b4cafd)" style="fill: #808080"/>
   </g>
   <g id="patch_42">
    <path d="M 115.58608 256.32 
L 116.775 256.32 
L 116.775 225.474639 
L 115.58608 225.474639 
z
" clip-path="url(#p2213b4cafd)" style="fill: #808080"/>
   </g>
   <g id="patch_43">
    <path d="M 116.775 256.32 
L 117.96392 256.32 
L 117.96392 224.023093 
L 116.775 224.023093 
z
" clip-path="url(#p2213b4cafd)" style="fill: #808080"/>
   </g>
   <g id="patch_44">
    <path d="M 117.96392 256.32 
L 119.152841 256.32 
L 119.152841 224.894021 
L 117.96392 224.894021 
z
" clip-path="url(#p2213b4cafd)" style="fill: #808080"/>
   </g>
   <g id="patch_45">
    <path d="M 119.152841 256.32 
L 120.341761 256.32 
L 120.341761 221.12 
L 119.152841 221.12 
z
" clip-path="url(#p2213b4cafd)" style="fill: #808080"/>
   </g>
   <g id="patch_46">
    <path d="M 120.341761 256.32 
L 121.530682 256.32 
L 121.530682 221.700619 
L 120.341761 221.700619 
z
" clip-path="url(#p2213b4cafd)" style="fill: #808080"/>
   </g>
   <g id="patch_47">
    <path d="M 121.530682 256.32 
L 122.719602 256.32 
L 122.719602 223.732784 
L 121.530682 223.732784 
z
" clip-path="url(#p2213b4cafd)" style="fill: #808080"/>
   </g>
   <g id="patch_48">
    <path d="M 122.719602 256.32 
L 123.908523 256.32 
L 123.908523 223.224742 
L 122.719602 223.224742 
z
" clip-path="url(#p2213b4cafd)" style="fill: #808080"/>
   </g>
   <g id="patch_49">
    <path d="M 123.908523 256.32 
L 125.097443 256.32 
L 125.097443 216.837938 
L 123.908523 216.837938 
z
" clip-path="url(#p2213b4cafd)" style="fill: #808080"/>
   </g>
   <g id="patch_50">
    <path d="M 125.097443 256.32 
L 126.286364 256.32 
L 126.286364 220.974845 
L 125.097443 220.974845 
z
" clip-path="url(#p2213b4cafd)" style="fill: #808080"/>
   </g>
   <g id="patch_51">
    <path d="M 126.286364 256.32 
L 127.475284 256.32 
L 127.475284 217.854021 
L 126.286364 217.854021 
z
" clip-path="url(#p2213b4cafd)" style="fill: #808080"/>
   </g>
   <g id="patch_52">
    <path d="M 127.475284 256.32 
L 128.664205 256.32 
L 128.664205 216.329897 
L 127.475284 216.329897 
z
" clip-path="url(#p2213b4cafd)" style="fill: #808080"/>
   </g>
   <g id="patch_53">
    <path d="M 128.664205 256.32 
L 129.853125 256.32 
L 129.853125 214.442887 
L 128.664205 214.442887 
z
" clip-path="url(#p2213b4cafd)" style="fill: #808080"/>
   </g>
   <g id="patch_54">
    <path d="M 129.853125 256.32 
L 131.042045 256.32 
L 131.042045 213.063918 
L 129.853125 213.063918 
z
" clip-path="url(#p2213b4cafd)" style="fill: #808080"/>
   </g>
   <g id="patch_55">
    <path d="M 131.042045 256.32 
L 132.230966 256.32 
L 132.230966 212.338144 
L 131.042045 212.338144 
z
" clip-path="url(#p2213b4cafd)" style="fill: #808080"/>
   </g>
   <g id="patch_56">
    <path d="M 132.230966 256.32 
L 133.419886 256.32 
L 133.419886 207.330309 
L 132.230966 207.330309 
z
" clip-path="url(#p2213b4cafd)" style="fill: #808080"/>
   </g>
   <g id="patch_57">
    <path d="M 133.419886 256.32 
L 134.608807 256.32 
L 134.608807 197.459794 
L 133.419886 197.459794 
z
" clip-path="url(#p2213b4cafd)" style="fill: #808080"/>
   </g>
   <g id="patch_58">
    <path d="M 134.608807 256.32 
L 135.797727 256.32 
L 135.797727 195.93567 
L 134.608807 195.93567 
z
" clip-path="url(#p2213b4cafd)" style="fill: #808080"/>
   </g>
   <g id="patch_59">
    <path d="M 135.797727 256.32 
L 136.986648 256.32 
L 136.986648 185.774845 
L 135.797727 185.774845 
z
" clip-path="url(#p2213b4cafd)" style="fill: #808080"/>
   </g>
   <g id="patch_60">
    <path d="M 136.986648 256.32 
L 138.175568 256.32 
L 138.175568 188.460206 
L 136.986648 188.460206 
z
" clip-path="url(#p2213b4cafd)" style="fill: #808080"/>
   </g>
   <g id="patch_61">
    <path d="M 138.175568 256.32 
L 139.364489 256.32 
L 139.364489 179.96866 
L 138.175568 179.96866 
z
" clip-path="url(#p2213b4cafd)" style="fill: #808080"/>
   </g>
   <g id="patch_62">
    <path d="M 139.364489 256.32 
L 140.553409 256.32 
L 140.553409 182.508866 
L 139.364489 182.508866 
z
" clip-path="url(#p2213b4cafd)" style="fill: #808080"/>
   </g>
   <g id="patch_63">
    <path d="M 140.553409 256.32 
L 141.74233 256.32 
L 141.74233 164.074227 
L 140.553409 164.074227 
z
" clip-path="url(#p2213b4cafd)" style="fill: #808080"/>
   </g>
   <g id="patch_64">
    <path d="M 141.74233 256.32 
L 142.93125 256.32 
L 142.93125 161.896907 
L 141.74233 161.896907 
z
" clip-path="url(#p2213b4cafd)" style="fill: #808080"/>
   </g>
   <g id="patch_65">
    <path d="M 142.93125 256.32 
L 144.12017 256.32 
L 144.12017 147.091134 
L 142.93125 147.091134 
z
" clip-path="url(#p2213b4cafd)" style="fill: #808080"/>
   </g>
   <g id="patch_66">
    <path d="M 144.12017 256.32 
L 145.309091 256.32 
L 145.309091 144.333196 
L 144.12017 144.333196 
z
" clip-path="url(#p2213b4cafd)" style="fill: #808080"/>
   </g>
   <g id="patch_67">
    <path d="M 145.309091 256.32 
L 146.498011 256.32 
L 146.498011 122.995464 
L 145.309091 122.995464 
z
" clip-path="url(#p2213b4cafd)" style="fill: #808080"/>
   </g>
   <g id="patch_68">
    <path d="M 146.498011 256.32 
L 147.686932 256.32 
L 147.686932 126.261443 
L 146.498011 126.261443 
z
" clip-path="url(#p2213b4cafd)" style="fill: #808080"/>
   </g>
   <g id="patch_69">
    <path d="M 147.686932 256.32 
L 148.875852 256.32 
L 148.875852 120.600412 
L 147.686932 120.600412 
z
" clip-path="url(#p2213b4cafd)" style="fill: #808080"/>
   </g>
   <g id="patch_70">
    <path d="M 148.875852 256.32 
L 150.064773 256.32 
L 150.064773 120.67299 
L 148.875852 120.67299 
z
" clip-path="url(#p2213b4cafd)" style="fill: #808080"/>
   </g>
   <g id="patch_71">
    <path d="M 150.064773 256.32 
L 151.253693 256.32 
L 151.253693 124.809897 
L 150.064773 124.809897 
z
" clip-path="url(#p2213b4cafd)" style="fill: #808080"/>
   </g>
   <g id="patch_72">
    <path d="M 151.253693 256.32 
L 152.442614 256.32 
L 152.442614 127.71299 
L 151.253693 127.71299 
z
" clip-path="url(#p2213b4cafd)" style="fill: #808080"/>
   </g>
   <g id="patch_73">
    <path d="M 152.442614 256.32 
L 153.631534 256.32 
L 153.631534 136.494845 
L 152.442614 136.494845 
z
" clip-path="url(#p2213b4cafd)" style="fill: #808080"/>
   </g>
   <g id="patch_74">
    <path d="M 153.631534 256.32 
L 154.820455 256.32 
L 154.820455 125.53567 
L 153.631534 125.53567 
z
" clip-path="url(#p2213b4cafd)" style="fill: #808080"/>
   </g>
   <g id="patch_75">
    <path d="M 154.820455 256.32 
L 156.009375 256.32 
L 156.009375 131.48701 
L 154.820455 131.48701 
z
" clip-path="url(#p2213b4cafd)" style="fill: #808080"/>
   </g>
   <g id="patch_76">
    <path d="M 156.009375 256.32 
L 157.198295 256.32 
L 157.198295 125.680825 
L 156.009375 125.680825 
z
" clip-path="url(#p2213b4cafd)" style="fill: #808080"/>
   </g>
   <g id="patch_77">
    <path d="M 157.198295 256.32 
L 158.387216 256.32 
L 158.387216 121.979381 
L 157.198295 121.979381 
z
" clip-path="url(#p2213b4cafd)" style="fill: #808080"/>
   </g>
   <g id="patch_78">
    <path d="M 158.387216 256.32 
L 159.576136 256.32 
L 159.576136 126.769485 
L 158.387216 126.769485 
z
" clip-path="url(#p2213b4cafd)" style="fill: #808080"/>
   </g>
   <g id="patch_79">
    <path d="M 159.576136 256.32 
L 160.765057 256.32 
L 160.765057 129.527423 
L 159.576136 129.527423 
z
" clip-path="url(#p2213b4cafd)" style="fill: #808080"/>
   </g>
   <g id="patch_80">
    <path d="M 160.765057 256.32 
L 161.953977 256.32 
L 161.953977 115.737732 
L 160.765057 115.737732 
z
" clip-path="url(#p2213b4cafd)" style="fill: #808080"/>
   </g>
   <g id="patch_81">
    <path d="M 161.953977 256.32 
L 163.142898 256.32 
L 163.142898 117.987629 
L 161.953977 117.987629 
z
" clip-path="url(#p2213b4cafd)" style="fill: #808080"/>
   </g>
   <g id="patch_82">
    <path d="M 163.142898 256.32 
L 164.331818 256.32 
L 164.331818 120.600412 
L 163.142898 120.600412 
z
" clip-path="url(#p2213b4cafd)" style="fill: #808080"/>
   </g>
   <g id="patch_83">
    <path d="M 164.331818 256.32 
L 165.520739 256.32 
L 165.520739 106.012371 
L 164.331818 106.012371 
z
" clip-path="url(#p2213b4cafd)" style="fill: #808080"/>
   </g>
   <g id="patch_84">
    <path d="M 165.520739 256.32 
L 166.709659 256.32 
L 166.709659 114.649072 
L 165.520739 114.649072 
z
" clip-path="url(#p2213b4cafd)" style="fill: #808080"/>
   </g>
   <g id="patch_85">
    <path d="M 166.709659 256.32 
L 167.89858 256.32 
L 167.89858 123.64866 
L 166.709659 123.64866 
z
" clip-path="url(#p2213b4cafd)" style="fill: #808080"/>
   </g>
   <g id="patch_86">
    <path d="M 167.89858 256.32 
L 169.0875 256.32 
L 169.0875 118.858557 
L 167.89858 118.858557 
z
" clip-path="url(#p2213b4cafd)" style="fill: #808080"/>
   </g>
   <g id="patch_87">
    <path d="M 169.0875 256.32 
L 170.27642 256.32 
L 170.27642 121.906804 
L 169.0875 121.906804 
z
" clip-path="url(#p2213b4cafd)" style="fill: #808080"/>
   </g>
   <g id="patch_88">
    <path d="M 170.27642 256.32 
L 171.465341 256.32 
L 171.465341 125.971134 
L 170.27642 125.971134 
z
" clip-path="url(#p2213b4cafd)" style="fill: #808080"/>
   </g>
   <g id="patch_89">
    <path d="M 171.465341 256.32 
L 172.654261 256.32 
L 172.654261 109.278351 
L 171.465341 109.278351 
z
" clip-path="url(#p2213b4cafd)" style="fill: #808080"/>
   </g>
   <g id="patch_90">
    <path d="M 172.654261 256.32 
L 173.843182 256.32 
L 173.843182 110.36701 
L 172.654261 110.36701 
z
" clip-path="url(#p2213b4cafd)" style="fill: #808080"/>
   </g>
   <g id="patch_91">
    <path d="M 173.843182 256.32 
L 175.032102 256.32 
L 175.032102 92.295258 
L 173.843182 92.295258 
z
" clip-path="url(#p2213b4cafd)" style="fill: #808080"/>
   </g>
   <g id="patch_92">
    <path d="M 175.032102 256.32 
L 176.221023 256.32 
L 176.221023 102.093196 
L 175.032102 102.093196 
z
" clip-path="url(#p2213b4cafd)" style="fill: #808080"/>
   </g>
   <g id="patch_93">
    <path d="M 176.221023 256.32 
L 177.409943 256.32 
L 177.409943 82.860206 
L 176.221023 82.860206 
z
" clip-path="url(#p2213b4cafd)" style="fill: #808080"/>
   </g>
   <g id="patch_94">
    <path d="M 177.409943 256.32 
L 178.598864 256.32 
L 178.598864 88.956701 
L 177.409943 88.956701 
z
" clip-path="url(#p2213b4cafd)" style="fill: #808080"/>
   </g>
   <g id="patch_95">
    <path d="M 178.598864 256.32 
L 179.787784 256.32 
L 179.787784 72.046186 
L 178.598864 72.046186 
z
" clip-path="url(#p2213b4cafd)" style="fill: #808080"/>
   </g>
   <g id="patch_96">
    <path d="M 179.787784 256.32 
L 180.976705 256.32 
L 180.976705 71.10268 
L 179.787784 71.10268 
z
" clip-path="url(#p2213b4cafd)" style="fill: #808080"/>
   </g>
   <g id="patch_97">
    <path d="M 180.976705 256.32 
L 182.165625 256.32 
L 182.165625 57.385567 
L 180.976705 57.385567 
z
" clip-path="url(#p2213b4cafd)" style="fill: #808080"/>
   </g>
   <g id="patch_98">
    <path d="M 182.165625 256.32 
L 183.354545 256.32 
L 183.354545 49.910103 
L 182.165625 49.910103 
z
" clip-path="url(#p2213b4cafd)" style="fill: #808080"/>
   </g>
   <g id="patch_99">
    <path d="M 183.354545 256.32 
L 184.543466 256.32 
L 184.543466 48.458557 
L 183.354545 48.458557 
z
" clip-path="url(#p2213b4cafd)" style="fill: #808080"/>
   </g>
   <g id="patch_100">
    <path d="M 184.543466 256.32 
L 185.732386 256.32 
L 185.732386 45.12 
L 184.543466 45.12 
z
" clip-path="url(#p2213b4cafd)" style="fill: #808080"/>
   </g>
   <g id="patch_101">
    <path d="M 185.732386 256.32 
L 186.921307 256.32 
L 186.921307 65.514227 
L 185.732386 65.514227 
z
" clip-path="url(#p2213b4cafd)" style="fill: #808080"/>
   </g>
   <g id="patch_102">
    <path d="M 186.921307 256.32 
L 188.110227 256.32 
L 188.110227 59.345155 
L 186.921307 59.345155 
z
" clip-path="url(#p2213b4cafd)" style="fill: #808080"/>
   </g>
   <g id="patch_103">
    <path d="M 188.110227 256.32 
L 189.299148 256.32 
L 189.299148 79.739381 
L 188.110227 79.739381 
z
" clip-path="url(#p2213b4cafd)" style="fill: #808080"/>
   </g>
   <g id="patch_104">
    <path d="M 189.299148 256.32 
L 190.488068 256.32 
L 190.488068 84.674639 
L 189.299148 84.674639 
z
" clip-path="url(#p2213b4cafd)" style="fill: #808080"/>
   </g>
   <g id="patch_105">
    <path d="M 190.488068 256.32 
L 191.676989 256.32 
L 191.676989 107.536495 
L 190.488068 107.536495 
z
" clip-path="url(#p2213b4cafd)" style="fill: #808080"/>
   </g>
   <g id="patch_106">
    <path d="M 191.676989 256.32 
L 192.865909 256.32 
L 192.865909 99.335258 
L 191.676989 99.335258 
z
" clip-path="url(#p2213b4cafd)" style="fill: #808080"/>
   </g>
   <g id="patch_107">
    <path d="M 192.865909 256.32 
L 194.05483 256.32 
L 194.05483 112.471753 
L 192.865909 112.471753 
z
" clip-path="url(#p2213b4cafd)" style="fill: #808080"/>
   </g>
   <g id="patch_108">
    <path d="M 194.05483 256.32 
L 195.24375 256.32 
L 195.24375 109.350928 
L 194.05483 109.350928 
z
" clip-path="url(#p2213b4cafd)" style="fill: #808080"/>
   </g>
   <g id="patch_109">
    <path d="M 195.24375 256.32 
L 196.43267 256.32 
L 196.43267 112.254021 
L 195.24375 112.254021 
z
" clip-path="url(#p2213b4cafd)" style="fill: #808080"/>
   </g>
   <g id="patch_110">
    <path d="M 196.43267 256.32 
L 197.621591 256.32 
L 197.621591 113.487835 
L 196.43267 113.487835 
z
" clip-path="url(#p2213b4cafd)" style="fill: #808080"/>
   </g>
   <g id="patch_111">
    <path d="M 197.621591 256.32 
L 198.810511 256.32 
L 198.810511 116.028041 
L 197.621591 116.028041 
z
" clip-path="url(#p2213b4cafd)" style="fill: #808080"/>
   </g>
   <g id="patch_112">
    <path d="M 198.810511 256.32 
L 199.999432 256.32 
L 199.999432 115.157113 
L 198.810511 115.157113 
z
" clip-path="url(#p2213b4cafd)" style="fill: #808080"/>
   </g>
   <g id="patch_113">
    <path d="M 199.999432 256.32 
L 201.188352 256.32 
L 201.188352 104.197938 
L 199.999432 104.197938 
z
" clip-path="url(#p2213b4cafd)" style="fill: #808080"/>
   </g>
   <g id="patch_114">
    <path d="M 201.188352 256.32 
L 202.377273 256.32 
L 202.377273 104.633402 
L 201.188352 104.633402 
z
" clip-path="url(#p2213b4cafd)" style="fill: #808080"/>
   </g>
   <g id="patch_115">
    <path d="M 202.377273 256.32 
L 203.566193 256.32 
L 203.566193 109.931546 
L 202.377273 109.931546 
z
" clip-path="url(#p2213b4cafd)" style="fill: #808080"/>
   </g>
   <g id="patch_116">
    <path d="M 203.566193 256.32 
L 204.755114 256.32 
L 204.755114 105.286598 
L 203.566193 105.286598 
z
" clip-path="url(#p2213b4cafd)" style="fill: #808080"/>
   </g>
   <g id="patch_117">
    <path d="M 204.755114 256.32 
L 205.944034 256.32 
L 205.944034 117.552165 
L 204.755114 117.552165 
z
" clip-path="url(#p2213b4cafd)" style="fill: #808080"/>
   </g>
   <g id="patch_118">
    <path d="M 205.944034 256.32 
L 207.132955 256.32 
L 207.132955 113.415258 
L 205.944034 113.415258 
z
" clip-path="url(#p2213b4cafd)" style="fill: #808080"/>
   </g>
   <g id="patch_119">
    <path d="M 207.132955 256.32 
L 208.321875 256.32 
L 208.321875 127.930722 
L 207.132955 127.930722 
z
" clip-path="url(#p2213b4cafd)" style="fill: #808080"/>
   </g>
   <g id="patch_120">
    <path d="M 208.321875 256.32 
L 209.510795 256.32 
L 209.510795 124.011546 
L 208.321875 124.011546 
z
" clip-path="url(#p2213b4cafd)" style="fill: #808080"/>
   </g>
   <g id="patch_121">
    <path d="M 209.510795 256.32 
L 210.699716 256.32 
L 210.699716 125.172784 
L 209.510795 125.172784 
z
" clip-path="url(#p2213b4cafd)" style="fill: #808080"/>
   </g>
   <g id="patch_122">
    <path d="M 210.699716 256.32 
L 211.888636 256.32 
L 211.888636 118.568247 
L 210.699716 118.568247 
z
" clip-path="url(#p2213b4cafd)" style="fill: #808080"/>
   </g>
   <g id="patch_123">
    <path d="M 211.888636 256.32 
L 213.077557 256.32 
L 213.077557 112.326598 
L 211.888636 112.326598 
z
" clip-path="url(#p2213b4cafd)" style="fill: #808080"/>
   </g>
   <g id="patch_124">
    <path d="M 213.077557 256.32 
L 214.266477 256.32 
L 214.266477 109.278351 
L 213.077557 109.278351 
z
" clip-path="url(#p2213b4cafd)" style="fill: #808080"/>
   </g>
   <g id="patch_125">
    <path d="M 214.266477 256.32 
L 215.455398 256.32 
L 215.455398 107.101031 
L 214.266477 107.101031 
z
" clip-path="url(#p2213b4cafd)" style="fill: #808080"/>
   </g>
   <g id="patch_126">
    <path d="M 215.455398 256.32 
L 216.644318 256.32 
L 216.644318 107.826804 
L 215.455398 107.826804 
z
" clip-path="url(#p2213b4cafd)" style="fill: #808080"/>
   </g>
   <g id="patch_127">
    <path d="M 216.644318 256.32 
L 217.833239 256.32 
L 217.833239 107.028454 
L 216.644318 107.028454 
z
" clip-path="url(#p2213b4cafd)" style="fill: #808080"/>
   </g>
   <g id="patch_128">
    <path d="M 217.833239 256.32 
L 219.022159 256.32 
L 219.022159 103.980206 
L 217.833239 103.980206 
z
" clip-path="url(#p2213b4cafd)" style="fill: #808080"/>
   </g>
   <g id="patch_129">
    <path d="M 219.022159 256.32 
L 220.21108 256.32 
L 220.21108 118.205361 
L 219.022159 118.205361 
z
" clip-path="url(#p2213b4cafd)" style="fill: #808080"/>
   </g>
   <g id="patch_130">
    <path d="M 220.21108 256.32 
L 221.4 256.32 
L 221.4 120.019794 
L 220.21108 120.019794 
z
" clip-path="url(#p2213b4cafd)" style="fill: #808080"/>
   </g>
   <g id="patch_131">
    <path d="M 221.4 256.32 
L 222.58892 256.32 
L 222.58892 130.833814 
L 221.4 130.833814 
z
" clip-path="url(#p2213b4cafd)" style="fill: #808080"/>
   </g>
   <g id="patch_132">
    <path d="M 222.58892 256.32 
L 223.777841 256.32 
L 223.777841 129.817732 
L 222.58892 129.817732 
z
" clip-path="url(#p2213b4cafd)" style="fill: #808080"/>
   </g>
   <g id="patch_133">
    <path d="M 223.777841 256.32 
L 224.966761 256.32 
L 224.966761 131.632165 
L 223.777841 131.632165 
z
" clip-path="url(#p2213b4cafd)" style="fill: #808080"/>
   </g>
   <g id="patch_134">
    <path d="M 224.966761 256.32 
L 226.155682 256.32 
L 226.155682 129.962887 
L 224.966761 129.962887 
z
" clip-path="url(#p2213b4cafd)" style="fill: #808080"/>
   </g>
   <g id="patch_135">
    <path d="M 226.155682 256.32 
L 227.344602 256.32 
L 227.344602 142.155876 
L 226.155682 142.155876 
z
" clip-path="url(#p2213b4cafd)" style="fill: #808080"/>
   </g>
   <g id="patch_136">
    <path d="M 227.344602 256.32 
L 228.533523 256.32 
L 228.533523 143.897732 
L 227.344602 143.897732 
z
" clip-path="url(#p2213b4cafd)" style="fill: #808080"/>
   </g>
   <g id="patch_137">
    <path d="M 228.533523 256.32 
L 229.722443 256.32 
L 229.722443 147.671753 
L 228.533523 147.671753 
z
" clip-path="url(#p2213b4cafd)" style="fill: #808080"/>
   </g>
   <g id="patch_138">
    <path d="M 229.722443 256.32 
L 230.911364 256.32 
L 230.911364 146.365361 
L 229.722443 146.365361 
z
" clip-path="url(#p2213b4cafd)" style="fill: #808080"/>
   </g>
   <g id="patch_139">
    <path d="M 230.911364 256.32 
L 232.100284 256.32 
L 232.100284 154.929485 
L 230.911364 154.929485 
z
" clip-path="url(#p2213b4cafd)" style="fill: #808080"/>
   </g>
   <g id="patch_140">
    <path d="M 232.100284 256.32 
L 233.289205 256.32 
L 233.289205 151.590928 
L 232.100284 151.590928 
z
" clip-path="url(#p2213b4cafd)" style="fill: #808080"/>
   </g>
   <g id="patch_141">
    <path d="M 233.289205 256.32 
L 234.478125 256.32 
L 234.478125 162.114639 
L 233.289205 162.114639 
z
" clip-path="url(#p2213b4cafd)" style="fill: #808080"/>
   </g>
   <g id="patch_142">
    <path d="M 234.478125 256.32 
L 235.667045 256.32 
L 235.667045 159.501856 
L 234.478125 159.501856 
z
" clip-path="url(#p2213b4cafd)" style="fill: #808080"/>
   </g>
   <g id="patch_143">
    <path d="M 235.667045 256.32 
L 236.855966 256.32 
L 236.855966 167.630515 
L 235.667045 167.630515 
z
" clip-path="url(#p2213b4cafd)" style="fill: #808080"/>
   </g>
   <g id="patch_144">
    <path d="M 236.855966 256.32 
L 238.044886 256.32 
L 238.044886 168.138557 
L 236.855966 168.138557 
z
" clip-path="url(#p2213b4cafd)" style="fill: #808080"/>
   </g>
   <g id="patch_145">
    <path d="M 238.044886 256.32 
L 239.233807 256.32 
L 239.233807 176.049485 
L 238.044886 176.049485 
z
" clip-path="url(#p2213b4cafd)" style="fill: #808080"/>
   </g>
   <g id="patch_146">
    <path d="M 239.233807 256.32 
L 240.422727 256.32 
L 240.422727 179.097732 
L 239.233807 179.097732 
z
" clip-path="url(#p2213b4cafd)" style="fill: #808080"/>
   </g>
   <g id="patch_147">
    <path d="M 240.422727 256.32 
L 241.611648 256.32 
L 241.611648 179.025155 
L 240.422727 179.025155 
z
" clip-path="url(#p2213b4cafd)" style="fill: #808080"/>
   </g>
   <g id="patch_148">
    <path d="M 241.611648 256.32 
L 242.800568 256.32 
L 242.800568 179.025155 
L 241.611648 179.025155 
z
" clip-path="url(#p2213b4cafd)" style="fill: #808080"/>
   </g>
   <g id="patch_149">
    <path d="M 242.800568 256.32 
L 243.989489 256.32 
L 243.989489 182.799175 
L 242.800568 182.799175 
z
" clip-path="url(#p2213b4cafd)" style="fill: #808080"/>
   </g>
   <g id="patch_150">
    <path d="M 243.989489 256.32 
L 245.178409 256.32 
L 245.178409 182.654021 
L 243.989489 182.654021 
z
" clip-path="url(#p2213b4cafd)" style="fill: #808080"/>
   </g>
   <g id="patch_151">
    <path d="M 245.178409 256.32 
L 246.36733 256.32 
L 246.36733 183.234639 
L 245.178409 183.234639 
z
" clip-path="url(#p2213b4cafd)" style="fill: #808080"/>
   </g>
   <g id="patch_152">
    <path d="M 246.36733 256.32 
L 247.55625 256.32 
L 247.55625 186.645773 
L 246.36733 186.645773 
z
" clip-path="url(#p2213b4cafd)" style="fill: #808080"/>
   </g>
   <g id="patch_153">
    <path d="M 247.55625 256.32 
L 248.74517 256.32 
L 248.74517 183.670103 
L 247.55625 183.670103 
z
" clip-path="url(#p2213b4cafd)" style="fill: #808080"/>
   </g>
   <g id="patch_154">
    <path d="M 248.74517 256.32 
L 249.934091 256.32 
L 249.934091 181.492784 
L 248.74517 181.492784 
z
" clip-path="url(#p2213b4cafd)" style="fill: #808080"/>
   </g>
   <g id="patch_155">
    <path d="M 249.934091 256.32 
L 251.123011 256.32 
L 251.123011 182.436289 
L 249.934091 182.436289 
z
" clip-path="url(#p2213b4cafd)" style="fill: #808080"/>
   </g>
   <g id="patch_156">
    <path d="M 251.123011 256.32 
L 252.311932 256.32 
L 252.311932 182.508866 
L 251.123011 182.508866 
z
" clip-path="url(#p2213b4cafd)" style="fill: #808080"/>
   </g>
   <g id="patch_157">
    <path d="M 252.311932 256.32 
L 253.500852 256.32 
L 253.500852 180.984742 
L 252.311932 180.984742 
z
" clip-path="url(#p2213b4cafd)" style="fill: #808080"/>
   </g>
   <g id="patch_158">
    <path d="M 253.500852 256.32 
L 254.689773 256.32 
L 254.689773 181.492784 
L 253.500852 181.492784 
z
" clip-path="url(#p2213b4cafd)" style="fill: #808080"/>
   </g>
   <g id="patch_159">
    <path d="M 254.689773 256.32 
L 255.878693 256.32 
L 255.878693 179.678351 
L 254.689773 179.678351 
z
" clip-path="url(#p2213b4cafd)" style="fill: #808080"/>
   </g>
   <g id="patch_160">
    <path d="M 255.878693 256.32 
L 257.067614 256.32 
L 257.067614 185.557113 
L 255.878693 185.557113 
z
" clip-path="url(#p2213b4cafd)" style="fill: #808080"/>
   </g>
   <g id="patch_161">
    <path d="M 257.067614 256.32 
L 258.256534 256.32 
L 258.256534 181.275052 
L 257.067614 181.275052 
z
" clip-path="url(#p2213b4cafd)" style="fill: #808080"/>
   </g>
   <g id="patch_162">
    <path d="M 258.256534 256.32 
L 259.445455 256.32 
L 259.445455 177.138144 
L 258.256534 177.138144 
z
" clip-path="url(#p2213b4cafd)" style="fill: #808080"/>
   </g>
   <g id="patch_163">
    <path d="M 259.445455 256.32 
L 260.634375 256.32 
L 260.634375 183.74268 
L 259.445455 183.74268 
z
" clip-path="url(#p2213b4cafd)" style="fill: #808080"/>
   </g>
   <g id="patch_164">
    <path d="M 260.634375 256.32 
L 261.823295 256.32 
L 261.823295 184.613608 
L 260.634375 184.613608 
z
" clip-path="url(#p2213b4cafd)" style="fill: #808080"/>
   </g>
   <g id="patch_165">
    <path d="M 261.823295 256.32 
L 263.012216 256.32 
L 263.012216 185.121649 
L 261.823295 185.121649 
z
" clip-path="url(#p2213b4cafd)" style="fill: #808080"/>
   </g>
   <g id="patch_166">
    <path d="M 263.012216 256.32 
L 264.201136 256.32 
L 264.201136 183.524948 
L 263.012216 183.524948 
z
" clip-path="url(#p2213b4cafd)" style="fill: #808080"/>
   </g>
   <g id="patch_167">
    <path d="M 264.201136 256.32 
L 265.390057 256.32 
L 265.390057 189.548866 
L 264.201136 189.548866 
z
" clip-path="url(#p2213b4cafd)" style="fill: #808080"/>
   </g>
   <g id="patch_168">
    <path d="M 265.390057 256.32 
L 266.578977 256.32 
L 266.578977 188.387629 
L 265.390057 188.387629 
z
" clip-path="url(#p2213b4cafd)" style="fill: #808080"/>
   </g>
   <g id="patch_169">
    <path d="M 266.578977 256.32 
L 267.767898 256.32 
L 267.767898 191.218144 
L 266.578977 191.218144 
z
" clip-path="url(#p2213b4cafd)" style="fill: #808080"/>
   </g>
   <g id="patch_170">
    <path d="M 267.767898 256.32 
L 268.956818 256.32 
L 268.956818 190.056907 
L 267.767898 190.056907 
z
" clip-path="url(#p2213b4cafd)" style="fill: #808080"/>
   </g>
   <g id="patch_171">
    <path d="M 268.956818 256.32 
L 270.145739 256.32 
L 270.145739 192.887423 
L 268.956818 192.887423 
z
" clip-path="url(#p2213b4cafd)" style="fill: #808080"/>
   </g>
   <g id="patch_172">
    <path d="M 270.145739 256.32 
L 271.334659 256.32 
L 271.334659 187.153814 
L 270.145739 187.153814 
z
" clip-path="url(#p2213b4cafd)" style="fill: #808080"/>
   </g>
   <g id="patch_173">
    <path d="M 271.334659 256.32 
L 272.52358 256.32 
L 272.52358 187.734433 
L 271.334659 187.734433 
z
" clip-path="url(#p2213b4cafd)" style="fill: #808080"/>
   </g>
   <g id="patch_174">
    <path d="M 272.52358 256.32 
L 273.7125 256.32 
L 273.7125 186.573196 
L 272.52358 186.573196 
z
" clip-path="url(#p2213b4cafd)" style="fill: #808080"/>
   </g>
   <g id="patch_175">
    <path d="M 273.7125 256.32 
L 274.90142 256.32 
L 274.90142 181.275052 
L 273.7125 181.275052 
z
" clip-path="url(#p2213b4cafd)" style="fill: #808080"/>
   </g>
   <g id="patch_176">
    <path d="M 274.90142 256.32 
L 276.090341 256.32 
L 276.090341 179.460619 
L 274.90142 179.460619 
z
" clip-path="url(#p2213b4cafd)" style="fill: #808080"/>
   </g>
   <g id="patch_177">
    <path d="M 276.090341 256.32 
L 277.279261 256.32 
L 277.279261 176.194639 
L 276.090341 176.194639 
z
" clip-path="url(#p2213b4cafd)" style="fill: #808080"/>
   </g>
   <g id="patch_178">
    <path d="M 277.279261 256.32 
L 278.468182 256.32 
L 278.468182 169.444948 
L 277.279261 169.444948 
z
" clip-path="url(#p2213b4cafd)" style="fill: #808080"/>
   </g>
   <g id="patch_179">
    <path d="M 278.468182 256.32 
L 279.657102 256.32 
L 279.657102 167.557938 
L 278.468182 167.557938 
z
" clip-path="url(#p2213b4cafd)" style="fill: #808080"/>
   </g>
   <g id="patch_180">
    <path d="M 279.657102 256.32 
L 280.846023 256.32 
L 280.846023 176.99299 
L 279.657102 176.99299 
z
" clip-path="url(#p2213b4cafd)" style="fill: #808080"/>
   </g>
   <g id="patch_181">
    <path d="M 280.846023 256.32 
L 282.034943 256.32 
L 282.034943 177.428454 
L 280.846023 177.428454 
z
" clip-path="url(#p2213b4cafd)" style="fill: #808080"/>
   </g>
   <g id="patch_182">
    <path d="M 282.034943 256.32 
L 283.223864 256.32 
L 283.223864 176.194639 
L 282.034943 176.194639 
z
" clip-path="url(#p2213b4cafd)" style="fill: #808080"/>
   </g>
   <g id="patch_183">
    <path d="M 283.223864 256.32 
L 284.412784 256.32 
L 284.412784 182.581443 
L 283.223864 182.581443 
z
" clip-path="url(#p2213b4cafd)" style="fill: #808080"/>
   </g>
   <g id="patch_184">
    <path d="M 284.412784 256.32 
L 285.601705 256.32 
L 285.601705 180.549278 
L 284.412784 180.549278 
z
" clip-path="url(#p2213b4cafd)" style="fill: #808080"/>
   </g>
   <g id="patch_185">
    <path d="M 285.601705 256.32 
L 286.790625 256.32 
L 286.790625 185.121649 
L 285.601705 185.121649 
z
" clip-path="url(#p2213b4cafd)" style="fill: #808080"/>
   </g>
   <g id="patch_186">
    <path d="M 286.790625 256.32 
L 287.979545 256.32 
L 287.979545 184.250722 
L 286.790625 184.250722 
z
" clip-path="url(#p2213b4cafd)" style="fill: #808080"/>
   </g>
   <g id="patch_187">
    <path d="M 287.979545 256.32 
L 289.168466 256.32 
L 289.168466 179.388041 
L 287.979545 179.388041 
z
" clip-path="url(#p2213b4cafd)" style="fill: #808080"/>
   </g>
   <g id="patch_188">
    <path d="M 289.168466 256.32 
L 290.357386 256.32 
L 290.357386 180.258969 
L 289.168466 180.258969 
z
" clip-path="url(#p2213b4cafd)" style="fill: #808080"/>
   </g>
   <g id="patch_189">
    <path d="M 290.357386 256.32 
L 291.546307 256.32 
L 291.546307 172.348041 
L 290.357386 172.348041 
z
" clip-path="url(#p2213b4cafd)" style="fill: #808080"/>
   </g>
   <g id="patch_190">
    <path d="M 291.546307 256.32 
L 292.735227 256.32 
L 292.735227 173.72701 
L 291.546307 173.72701 
z
" clip-path="url(#p2213b4cafd)" style="fill: #808080"/>
   </g>
   <g id="patch_191">
    <path d="M 292.735227 256.32 
L 293.924148 256.32 
L 293.924148 175.686598 
L 292.735227 175.686598 
z
" clip-path="url(#p2213b4cafd)" style="fill: #808080"/>
   </g>
   <g id="patch_192">
    <path d="M 293.924148 256.32 
L 295.113068 256.32 
L 295.113068 183.597526 
L 293.924148 183.597526 
z
" clip-path="url(#p2213b4cafd)" style="fill: #808080"/>
   </g>
   <g id="patch_193">
    <path d="M 295.113068 256.32 
L 296.301989 256.32 
L 296.301989 175.251134 
L 295.113068 175.251134 
z
" clip-path="url(#p2213b4cafd)" style="fill: #808080"/>
   </g>
   <g id="patch_194">
    <path d="M 296.301989 256.32 
L 297.490909 256.32 
L 297.490909 179.170309 
L 296.301989 179.170309 
z
" clip-path="url(#p2213b4cafd)" style="fill: #808080"/>
   </g>
   <g id="patch_195">
    <path d="M 297.490909 256.32 
L 298.67983 256.32 
L 298.67983 177.355876 
L 297.490909 177.355876 
z
" clip-path="url(#p2213b4cafd)" style="fill: #808080"/>
   </g>
   <g id="patch_196">
    <path d="M 298.67983 256.32 
L 299.86875 256.32 
L 299.86875 178.662268 
L 298.67983 178.662268 
z
" clip-path="url(#p2213b4cafd)" style="fill: #808080"/>
   </g>
   <g id="patch_197">
    <path d="M 299.86875 256.32 
L 301.05767 256.32 
L 301.05767 172.856082 
L 299.86875 172.856082 
z
" clip-path="url(#p2213b4cafd)" style="fill: #808080"/>
   </g>
   <g id="patch_198">
    <path d="M 301.05767 256.32 
L 302.246591 256.32 
L 302.246591 177.501031 
L 301.05767 177.501031 
z
" clip-path="url(#p2213b4cafd)" style="fill: #808080"/>
   </g>
   <g id="patch_199">
    <path d="M 302.246591 256.32 
L 303.435511 256.32 
L 303.435511 177.138144 
L 302.246591 177.138144 
z
" clip-path="url(#p2213b4cafd)" style="fill: #808080"/>
   </g>
   <g id="patch_200">
    <path d="M 303.435511 256.32 
L 304.624432 256.32 
L 304.624432 176.557526 
L 303.435511 176.557526 
z
" clip-path="url(#p2213b4cafd)" style="fill: #808080"/>
   </g>
   <g id="patch_201">
    <path d="M 304.624432 256.32 
L 305.813352 256.32 
L 305.813352 176.99299 
L 304.624432 176.99299 
z
" clip-path="url(#p2213b4cafd)" style="fill: #808080"/>
   </g>
   <g id="patch_202">
    <path d="M 305.813352 256.32 
L 307.002273 256.32 
L 307.002273 172.638351 
L 305.813352 172.638351 
z
" clip-path="url(#p2213b4cafd)" style="fill: #808080"/>
   </g>
   <g id="patch_203">
    <path d="M 307.002273 256.32 
L 308.191193 256.32 
L 308.191193 170.315876 
L 307.002273 170.315876 
z
" clip-path="url(#p2213b4cafd)" style="fill: #808080"/>
   </g>
   <g id="patch_204">
    <path d="M 308.191193 256.32 
L 309.380114 256.32 
L 309.380114 164.509691 
L 308.191193 164.509691 
z
" clip-path="url(#p2213b4cafd)" style="fill: #808080"/>
   </g>
   <g id="patch_205">
    <path d="M 309.380114 256.32 
L 310.569034 256.32 
L 310.569034 148.615258 
L 309.380114 148.615258 
z
" clip-path="url(#p2213b4cafd)" style="fill: #808080"/>
   </g>
   <g id="patch_206">
    <path d="M 310.569034 256.32 
L 311.757955 256.32 
L 311.757955 152.824742 
L 310.569034 152.824742 
z
" clip-path="url(#p2213b4cafd)" style="fill: #808080"/>
   </g>
   <g id="patch_207">
    <path d="M 311.757955 256.32 
L 312.946875 256.32 
L 312.946875 146.583093 
L 311.757955 146.583093 
z
" clip-path="url(#p2213b4cafd)" style="fill: #808080"/>
   </g>
   <g id="patch_208">
    <path d="M 312.946875 256.32 
L 314.135795 256.32 
L 314.135795 146.075052 
L 312.946875 146.075052 
z
" clip-path="url(#p2213b4cafd)" style="fill: #808080"/>
   </g>
   <g id="patch_209">
    <path d="M 314.135795 256.32 
L 315.324716 256.32 
L 315.324716 148.107216 
L 314.135795 148.107216 
z
" clip-path="url(#p2213b4cafd)" style="fill: #808080"/>
   </g>
   <g id="patch_210">
    <path d="M 315.324716 256.32 
L 316.513636 256.32 
L 316.513636 149.558763 
L 315.324716 149.558763 
z
" clip-path="url(#p2213b4cafd)" style="fill: #808080"/>
   </g>
   <g id="patch_211">
    <path d="M 316.513636 256.32 
L 317.702557 256.32 
L 317.702557 151.881237 
L 316.513636 151.881237 
z
" clip-path="url(#p2213b4cafd)" style="fill: #808080"/>
   </g>
   <g id="patch_212">
    <path d="M 317.702557 256.32 
L 318.891477 256.32 
L 318.891477 146.945979 
L 317.702557 146.945979 
z
" clip-path="url(#p2213b4cafd)" style="fill: #808080"/>
   </g>
   <g id="patch_213">
    <path d="M 318.891477 256.32 
L 320.080398 256.32 
L 320.080398 163.929072 
L 318.891477 163.929072 
z
" clip-path="url(#p2213b4cafd)" style="fill: #808080"/>
   </g>
   <g id="patch_214">
    <path d="M 320.080398 256.32 
L 321.269318 256.32 
L 321.269318 162.114639 
L 320.080398 162.114639 
z
" clip-path="url(#p2213b4cafd)" style="fill: #808080"/>
   </g>
   <g id="patch_215">
    <path d="M 321.269318 256.32 
L 322.458239 256.32 
L 322.458239 179.025155 
L 321.269318 179.025155 
z
" clip-path="url(#p2213b4cafd)" style="fill: #808080"/>
   </g>
   <g id="patch_216">
    <path d="M 322.458239 256.32 
L 323.647159 256.32 
L 323.647159 178.444536 
L 322.458239 178.444536 
z
" clip-path="url(#p2213b4cafd)" style="fill: #808080"/>
   </g>
   <g id="patch_217">
    <path d="M 323.647159 256.32 
L 324.83608 256.32 
L 324.83608 188.242474 
L 323.647159 188.242474 
z
" clip-path="url(#p2213b4cafd)" style="fill: #808080"/>
   </g>
   <g id="patch_218">
    <path d="M 324.83608 256.32 
L 326.025 256.32 
L 326.025 182.726598 
L 324.83608 182.726598 
z
" clip-path="url(#p2213b4cafd)" style="fill: #808080"/>
   </g>
   <g id="patch_219">
    <path d="M 326.025 256.32 
L 327.21392 256.32 
L 327.21392 180.839588 
L 326.025 180.839588 
z
" clip-path="url(#p2213b4cafd)" style="fill: #808080"/>
   </g>
   <g id="patch_220">
    <path d="M 327.21392 256.32 
L 328.402841 256.32 
L 328.402841 183.597526 
L 327.21392 183.597526 
z
" clip-path="url(#p2213b4cafd)" style="fill: #808080"/>
   </g>
   <g id="patch_221">
    <path d="M 328.402841 256.32 
L 329.591761 256.32 
L 329.591761 175.759175 
L 328.402841 175.759175 
z
" clip-path="url(#p2213b4cafd)" style="fill: #808080"/>
   </g>
   <g id="patch_222">
    <path d="M 329.591761 256.32 
L 330.780682 256.32 
L 330.780682 178.371959 
L 329.591761 178.371959 
z
" clip-path="url(#p2213b4cafd)" style="fill: #808080"/>
   </g>
   <g id="patch_223">
    <path d="M 330.780682 256.32 
L 331.969602 256.32 
L 331.969602 156.381031 
L 330.780682 156.381031 
z
" clip-path="url(#p2213b4cafd)" style="fill: #808080"/>
   </g>
   <g id="patch_224">
    <path d="M 331.969602 256.32 
L 333.158523 256.32 
L 333.158523 154.276289 
L 331.969602 154.276289 
z
" clip-path="url(#p2213b4cafd)" style="fill: #808080"/>
   </g>
   <g id="patch_225">
    <path d="M 333.158523 256.32 
L 334.347443 256.32 
L 334.347443 144.478351 
L 333.158523 144.478351 
z
" clip-path="url(#p2213b4cafd)" style="fill: #808080"/>
   </g>
   <g id="patch_226">
    <path d="M 334.347443 256.32 
L 335.536364 256.32 
L 335.536364 145.131546 
L 334.347443 145.131546 
z
" clip-path="url(#p2213b4cafd)" style="fill: #808080"/>
   </g>
   <g id="patch_227">
    <path d="M 335.536364 256.32 
L 336.725284 256.32 
L 336.725284 149.921649 
L 335.536364 149.921649 
z
" clip-path="url(#p2213b4cafd)" style="fill: #808080"/>
   </g>
   <g id="patch_228">
    <path d="M 336.725284 256.32 
L 337.914205 256.32 
L 337.914205 152.461856 
L 336.725284 152.461856 
z
" clip-path="url(#p2213b4cafd)" style="fill: #808080"/>
   </g>
   <g id="patch_229">
    <path d="M 337.914205 256.32 
L 339.103125 256.32 
L 339.103125 172.348041 
L 337.914205 172.348041 
z
" clip-path="url(#p2213b4cafd)" style="fill: #808080"/>
   </g>
   <g id="patch_230">
    <path d="M 339.103125 256.32 
L 340.292045 256.32 
L 340.292045 170.315876 
L 339.103125 170.315876 
z
" clip-path="url(#p2213b4cafd)" style="fill: #808080"/>
   </g>
   <g id="patch_231">
    <path d="M 340.292045 256.32 
L 341.480966 256.32 
L 341.480966 189.040825 
L 340.292045 189.040825 
z
" clip-path="url(#p2213b4cafd)" style="fill: #808080"/>
   </g>
   <g id="patch_232">
    <path d="M 341.480966 256.32 
L 342.669886 256.32 
L 342.669886 189.839175 
L 341.480966 189.839175 
z
" clip-path="url(#p2213b4cafd)" style="fill: #808080"/>
   </g>
   <g id="patch_233">
    <path d="M 342.669886 256.32 
L 343.858807 256.32 
L 343.858807 197.895258 
L 342.669886 197.895258 
z
" clip-path="url(#p2213b4cafd)" style="fill: #808080"/>
   </g>
   <g id="patch_234">
    <path d="M 343.858807 256.32 
L 345.047727 256.32 
L 345.047727 192.887423 
L 343.858807 192.887423 
z
" clip-path="url(#p2213b4cafd)" style="fill: #808080"/>
   </g>
   <g id="patch_235">
    <path d="M 345.047727 256.32 
L 346.236648 256.32 
L 346.236648 197.967835 
L 345.047727 197.967835 
z
" clip-path="url(#p2213b4cafd)" style="fill: #808080"/>
   </g>
   <g id="patch_236">
    <path d="M 346.236648 256.32 
L 347.425568 256.32 
L 347.425568 205.370722 
L 346.236648 205.370722 
z
" clip-path="url(#p2213b4cafd)" style="fill: #808080"/>
   </g>
   <g id="patch_237">
    <path d="M 347.425568 256.32 
L 348.614489 256.32 
L 348.614489 192.451959 
L 347.425568 192.451959 
z
" clip-path="url(#p2213b4cafd)" style="fill: #808080"/>
   </g>
   <g id="patch_238">
    <path d="M 348.614489 256.32 
L 349.803409 256.32 
L 349.803409 189.621443 
L 348.614489 189.621443 
z
" clip-path="url(#p2213b4cafd)" style="fill: #808080"/>
   </g>
   <g id="patch_239">
    <path d="M 349.803409 256.32 
L 350.99233 256.32 
L 350.99233 190.056907 
L 349.803409 190.056907 
z
" clip-path="url(#p2213b4cafd)" style="fill: #808080"/>
   </g>
   <g id="patch_240">
    <path d="M 350.99233 256.32 
L 352.18125 256.32 
L 352.18125 182.218557 
L 350.99233 182.218557 
z
" clip-path="url(#p2213b4cafd)" style="fill: #808080"/>
   </g>
   <g id="patch_241">
    <path d="M 352.18125 256.32 
L 353.37017 256.32 
L 353.37017 190.927835 
L 352.18125 190.927835 
z
" clip-path="url(#p2213b4cafd)" style="fill: #808080"/>
   </g>
   <g id="patch_242">
    <path d="M 353.37017 256.32 
L 354.559091 256.32 
L 354.559091 187.298969 
L 353.37017 187.298969 
z
" clip-path="url(#p2213b4cafd)" style="fill: #808080"/>
   </g>
   <g id="patch_243">
    <path d="M 354.559091 256.32 
L 355.748011 256.32 
L 355.748011 214.660619 
L 354.559091 214.660619 
z
" clip-path="url(#p2213b4cafd)" style="fill: #808080"/>
   </g>
   <g id="patch_244">
    <path d="M 355.748011 256.32 
L 356.936932 256.32 
L 356.936932 216.475052 
L 355.748011 216.475052 
z
" clip-path="url(#p2213b4cafd)" style="fill: #808080"/>
   </g>
   <g id="patch_245">
    <path d="M 356.936932 256.32 
L 358.125852 256.32 
L 358.125852 228.885773 
L 356.936932 228.885773 
z
" clip-path="url(#p2213b4cafd)" style="fill: #808080"/>
   </g>
   <g id="patch_246">
    <path d="M 358.125852 256.32 
L 359.314773 256.32 
L 359.314773 230.119588 
L 358.125852 230.119588 
z
" clip-path="url(#p2213b4cafd)" style="fill: #808080"/>
   </g>
   <g id="patch_247">
    <path d="M 359.314773 256.32 
L 360.503693 256.32 
L 360.503693 233.966186 
L 359.314773 233.966186 
z
" clip-path="url(#p2213b4cafd)" style="fill: #808080"/>
   </g>
   <g id="patch_248">
    <path d="M 360.503693 256.32 
L 361.692614 256.32 
L 361.692614 235.780619 
L 360.503693 235.780619 
z
" clip-path="url(#p2213b4cafd)" style="fill: #808080"/>
   </g>
   <g id="patch_249">
    <path d="M 361.692614 256.32 
L 362.881534 256.32 
L 362.881534 239.772371 
L 361.692614 239.772371 
z
" clip-path="url(#p2213b4cafd)" style="fill: #808080"/>
   </g>
   <g id="patch_250">
    <path d="M 362.881534 256.32 
L 364.070455 256.32 
L 364.070455 239.699794 
L 362.881534 239.699794 
z
" clip-path="url(#p2213b4cafd)" style="fill: #808080"/>
   </g>
   <g id="patch_251">
    <path d="M 364.070455 256.32 
L 365.259375 256.32 
L 365.259375 243.183505 
L 364.070455 243.183505 
z
" clip-path="url(#p2213b4cafd)" style="fill: #808080"/>
   </g>
   <g id="patch_252">
    <path d="M 365.259375 256.32 
L 366.448295 256.32 
L 366.448295 243.473814 
L 365.259375 243.473814 
z
" clip-path="url(#p2213b4cafd)" style="fill: #808080"/>
   </g>
   <g id="patch_253">
    <path d="M 366.448295 256.32 
L 367.637216 256.32 
L 367.637216 246.231753 
L 366.448295 246.231753 
z
" clip-path="url(#p2213b4cafd)" style="fill: #808080"/>
   </g>
   <g id="patch_254">
    <path d="M 367.637216 256.32 
L 368.826136 256.32 
L 368.826136 248.19134 
L 367.637216 248.19134 
z
" clip-path="url(#p2213b4cafd)" style="fill: #808080"/>
   </g>
   <g id="patch_255">
    <path d="M 368.826136 256.32 
L 370.015057 256.32 
L 370.015057 249.497732 
L 368.826136 249.497732 
z
" clip-path="url(#p2213b4cafd)" style="fill: #808080"/>
   </g>
   <g id="patch_256">
    <path d="M 370.015057 256.32 
L 371.203977 256.32 
L 371.203977 248.336495 
L 370.015057 248.336495 
z
" clip-path="url(#p2213b4cafd)" style="fill: #808080"/>
   </g>
   <g id="patch_257">
    <path d="M 371.203977 256.32 
L 372.392898 256.32 
L 372.392898 238.17567 
L 371.203977 238.17567 
z
" clip-path="url(#p2213b4cafd)" style="fill: #808080"/>
   </g>
   <g id="patch_258">
    <path d="M 372.392898 256.32 
L 373.581818 256.32 
L 373.581818 239.336907 
L 372.392898 239.336907 
z
" clip-path="url(#p2213b4cafd)" style="fill: #808080"/>
   </g>
   <g id="matplotlib.axis_1">
    <g id="xtick_1">
     <g id="line2d_1">
      <defs>
       <path id="mc49f309f52" d="M 0 0 
L 0 3.5 
" style="stroke: #000000; stroke-width: 0.8"/>
      </defs>
      <g>
       <use xlink:href="#mc49f309f52" x="69.218182" y="256.32" style="stroke: #000000; stroke-width: 0.8"/>
      </g>
     </g>
     <g id="text_1">
      <!-- 0 -->
      <g transform="translate(66.036932 270.918437) scale(0.1 -0.1)">
       <defs>
        <path id="DejaVuSans-30" d="M 2034 4250 
Q 1547 4250 1301 3770 
Q 1056 3291 1056 2328 
Q 1056 1369 1301 889 
Q 1547 409 2034 409 
Q 2525 409 2770 889 
Q 3016 1369 3016 2328 
Q 3016 3291 2770 3770 
Q 2525 4250 2034 4250 
z
M 2034 4750 
Q 2819 4750 3233 4129 
Q 3647 3509 3647 2328 
Q 3647 1150 3233 529 
Q 2819 -91 2034 -91 
Q 1250 -91 836 529 
Q 422 1150 422 2328 
Q 422 3509 836 4129 
Q 1250 4750 2034 4750 
z
" transform="scale(0.015625)"/>
       </defs>
       <use xlink:href="#DejaVuSans-30"/>
      </g>
     </g>
    </g>
    <g id="xtick_2">
     <g id="line2d_2">
      <g>
       <use xlink:href="#mc49f309f52" x="128.897326" y="256.32" style="stroke: #000000; stroke-width: 0.8"/>
      </g>
     </g>
     <g id="text_2">
      <!-- 50 -->
      <g transform="translate(122.534826 270.918437) scale(0.1 -0.1)">
       <defs>
        <path id="DejaVuSans-35" d="M 691 4666 
L 3169 4666 
L 3169 4134 
L 1269 4134 
L 1269 2991 
Q 1406 3038 1543 3061 
Q 1681 3084 1819 3084 
Q 2600 3084 3056 2656 
Q 3513 2228 3513 1497 
Q 3513 744 3044 326 
Q 2575 -91 1722 -91 
Q 1428 -91 1123 -41 
Q 819 9 494 109 
L 494 744 
Q 775 591 1075 516 
Q 1375 441 1709 441 
Q 2250 441 2565 725 
Q 2881 1009 2881 1497 
Q 2881 1984 2565 2268 
Q 2250 2553 1709 2553 
Q 1456 2553 1204 2497 
Q 953 2441 691 2322 
L 691 4666 
z
" transform="scale(0.015625)"/>
       </defs>
       <use xlink:href="#DejaVuSans-35"/>
       <use xlink:href="#DejaVuSans-30" x="63.623047"/>
      </g>
     </g>
    </g>
    <g id="xtick_3">
     <g id="line2d_3">
      <g>
       <use xlink:href="#mc49f309f52" x="188.576471" y="256.32" style="stroke: #000000; stroke-width: 0.8"/>
      </g>
     </g>
     <g id="text_3">
      <!-- 100 -->
      <g transform="translate(179.032721 270.918437) scale(0.1 -0.1)">
       <defs>
        <path id="DejaVuSans-31" d="M 794 531 
L 1825 531 
L 1825 4091 
L 703 3866 
L 703 4441 
L 1819 4666 
L 2450 4666 
L 2450 531 
L 3481 531 
L 3481 0 
L 794 0 
L 794 531 
z
" transform="scale(0.015625)"/>
       </defs>
       <use xlink:href="#DejaVuSans-31"/>
       <use xlink:href="#DejaVuSans-30" x="63.623047"/>
       <use xlink:href="#DejaVuSans-30" x="127.246094"/>
      </g>
     </g>
    </g>
    <g id="xtick_4">
     <g id="line2d_4">
      <g>
       <use xlink:href="#mc49f309f52" x="248.255615" y="256.32" style="stroke: #000000; stroke-width: 0.8"/>
      </g>
     </g>
     <g id="text_4">
      <!-- 150 -->
      <g transform="translate(238.711865 270.918437) scale(0.1 -0.1)">
       <use xlink:href="#DejaVuSans-31"/>
       <use xlink:href="#DejaVuSans-35" x="63.623047"/>
       <use xlink:href="#DejaVuSans-30" x="127.246094"/>
      </g>
     </g>
    </g>
    <g id="xtick_5">
     <g id="line2d_5">
      <g>
       <use xlink:href="#mc49f309f52" x="307.934759" y="256.32" style="stroke: #000000; stroke-width: 0.8"/>
      </g>
     </g>
     <g id="text_5">
      <!-- 200 -->
      <g transform="translate(298.391009 270.918437) scale(0.1 -0.1)">
       <defs>
        <path id="DejaVuSans-32" d="M 1228 531 
L 3431 531 
L 3431 0 
L 469 0 
L 469 531 
Q 828 903 1448 1529 
Q 2069 2156 2228 2338 
Q 2531 2678 2651 2914 
Q 2772 3150 2772 3378 
Q 2772 3750 2511 3984 
Q 2250 4219 1831 4219 
Q 1534 4219 1204 4116 
Q 875 4013 500 3803 
L 500 4441 
Q 881 4594 1212 4672 
Q 1544 4750 1819 4750 
Q 2544 4750 2975 4387 
Q 3406 4025 3406 3419 
Q 3406 3131 3298 2873 
Q 3191 2616 2906 2266 
Q 2828 2175 2409 1742 
Q 1991 1309 1228 531 
z
" transform="scale(0.015625)"/>
       </defs>
       <use xlink:href="#DejaVuSans-32"/>
       <use xlink:href="#DejaVuSans-30" x="63.623047"/>
       <use xlink:href="#DejaVuSans-30" x="127.246094"/>
      </g>
     </g>
    </g>
    <g id="xtick_6">
     <g id="line2d_6">
      <g>
       <use xlink:href="#mc49f309f52" x="367.613904" y="256.32" style="stroke: #000000; stroke-width: 0.8"/>
      </g>
     </g>
     <g id="text_6">
      <!-- 250 -->
      <g transform="translate(358.070154 270.918437) scale(0.1 -0.1)">
       <use xlink:href="#DejaVuSans-32"/>
       <use xlink:href="#DejaVuSans-35" x="63.623047"/>
       <use xlink:href="#DejaVuSans-30" x="127.246094"/>
      </g>
     </g>
    </g>
   </g>
   <g id="matplotlib.axis_2">
    <g id="ytick_1">
     <g id="line2d_7">
      <defs>
       <path id="m4c88a82fcc" d="M 0 0 
L -3.5 0 
" style="stroke: #000000; stroke-width: 0.8"/>
      </defs>
      <g>
       <use xlink:href="#m4c88a82fcc" x="54" y="256.32" style="stroke: #000000; stroke-width: 0.8"/>
      </g>
     </g>
     <g id="text_7">
      <!-- 0 -->
      <g transform="translate(40.6375 260.119219) scale(0.1 -0.1)">
       <use xlink:href="#DejaVuSans-30"/>
      </g>
     </g>
    </g>
    <g id="ytick_2">
     <g id="line2d_8">
      <g>
       <use xlink:href="#m4c88a82fcc" x="54" y="220.03134" style="stroke: #000000; stroke-width: 0.8"/>
      </g>
     </g>
     <g id="text_8">
      <!-- 500 -->
      <g transform="translate(27.9125 223.830559) scale(0.1 -0.1)">
       <use xlink:href="#DejaVuSans-35"/>
       <use xlink:href="#DejaVuSans-30" x="63.623047"/>
       <use xlink:href="#DejaVuSans-30" x="127.246094"/>
      </g>
     </g>
    </g>
    <g id="ytick_3">
     <g id="line2d_9">
      <g>
       <use xlink:href="#m4c88a82fcc" x="54" y="183.74268" style="stroke: #000000; stroke-width: 0.8"/>
      </g>
     </g>
     <g id="text_9">
      <!-- 1000 -->
      <g transform="translate(21.55 187.541899) scale(0.1 -0.1)">
       <use xlink:href="#DejaVuSans-31"/>
       <use xlink:href="#DejaVuSans-30" x="63.623047"/>
       <use xlink:href="#DejaVuSans-30" x="127.246094"/>
       <use xlink:href="#DejaVuSans-30" x="190.869141"/>
      </g>
     </g>
    </g>
    <g id="ytick_4">
     <g id="line2d_10">
      <g>
       <use xlink:href="#m4c88a82fcc" x="54" y="147.454021" style="stroke: #000000; stroke-width: 0.8"/>
      </g>
     </g>
     <g id="text_10">
      <!-- 1500 -->
      <g transform="translate(21.55 151.253239) scale(0.1 -0.1)">
       <use xlink:href="#DejaVuSans-31"/>
       <use xlink:href="#DejaVuSans-35" x="63.623047"/>
       <use xlink:href="#DejaVuSans-30" x="127.246094"/>
       <use xlink:href="#DejaVuSans-30" x="190.869141"/>
      </g>
     </g>
    </g>
    <g id="ytick_5">
     <g id="line2d_11">
      <g>
       <use xlink:href="#m4c88a82fcc" x="54" y="111.165361" style="stroke: #000000; stroke-width: 0.8"/>
      </g>
     </g>
     <g id="text_11">
      <!-- 2000 -->
      <g transform="translate(21.55 114.96458) scale(0.1 -0.1)">
       <use xlink:href="#DejaVuSans-32"/>
       <use xlink:href="#DejaVuSans-30" x="63.623047"/>
       <use xlink:href="#DejaVuSans-30" x="127.246094"/>
       <use xlink:href="#DejaVuSans-30" x="190.869141"/>
      </g>
     </g>
    </g>
    <g id="ytick_6">
     <g id="line2d_12">
      <g>
       <use xlink:href="#m4c88a82fcc" x="54" y="74.876701" style="stroke: #000000; stroke-width: 0.8"/>
      </g>
     </g>
     <g id="text_12">
      <!-- 2500 -->
      <g transform="translate(21.55 78.67592) scale(0.1 -0.1)">
       <use xlink:href="#DejaVuSans-32"/>
       <use xlink:href="#DejaVuSans-35" x="63.623047"/>
       <use xlink:href="#DejaVuSans-30" x="127.246094"/>
       <use xlink:href="#DejaVuSans-30" x="190.869141"/>
      </g>
     </g>
    </g>
    <g id="ytick_7">
     <g id="line2d_13">
      <g>
       <use xlink:href="#m4c88a82fcc" x="54" y="38.588041" style="stroke: #000000; stroke-width: 0.8"/>
      </g>
     </g>
     <g id="text_13">
      <!-- 3000 -->
      <g transform="translate(21.55 42.38726) scale(0.1 -0.1)">
       <defs>
        <path id="DejaVuSans-33" d="M 2597 2516 
Q 3050 2419 3304 2112 
Q 3559 1806 3559 1356 
Q 3559 666 3084 287 
Q 2609 -91 1734 -91 
Q 1441 -91 1130 -33 
Q 819 25 488 141 
L 488 750 
Q 750 597 1062 519 
Q 1375 441 1716 441 
Q 2309 441 2620 675 
Q 2931 909 2931 1356 
Q 2931 1769 2642 2001 
Q 2353 2234 1838 2234 
L 1294 2234 
L 1294 2753 
L 1863 2753 
Q 2328 2753 2575 2939 
Q 2822 3125 2822 3475 
Q 2822 3834 2567 4026 
Q 2313 4219 1838 4219 
Q 1578 4219 1281 4162 
Q 984 4106 628 3988 
L 628 4550 
Q 988 4650 1302 4700 
Q 1616 4750 1894 4750 
Q 2613 4750 3031 4423 
Q 3450 4097 3450 3541 
Q 3450 3153 3228 2886 
Q 3006 2619 2597 2516 
z
" transform="scale(0.015625)"/>
       </defs>
       <use xlink:href="#DejaVuSans-33"/>
       <use xlink:href="#DejaVuSans-30" x="63.623047"/>
       <use xlink:href="#DejaVuSans-30" x="127.246094"/>
       <use xlink:href="#DejaVuSans-30" x="190.869141"/>
      </g>
     </g>
    </g>
   </g>
   <g id="patch_259">
    <path d="M 54 256.32 
L 54 34.56 
" style="fill: none; stroke: #000000; stroke-width: 0.8; stroke-linejoin: miter; stroke-linecap: square"/>
   </g>
   <g id="patch_260">
    <path d="M 388.8 256.32 
L 388.8 34.56 
" style="fill: none; stroke: #000000; stroke-width: 0.8; stroke-linejoin: miter; stroke-linecap: square"/>
   </g>
   <g id="patch_261">
    <path d="M 54 256.32 
L 388.8 256.32 
" style="fill: none; stroke: #000000; stroke-width: 0.8; stroke-linejoin: miter; stroke-linecap: square"/>
   </g>
   <g id="patch_262">
    <path d="M 54 34.56 
L 388.8 34.56 
" style="fill: none; stroke: #000000; stroke-width: 0.8; stroke-linejoin: miter; stroke-linecap: square"/>
   </g>
   <g id="text_14">
    <!-- Histogram of LSB_Steganography Image -->
    <g transform="translate(99.781875 28.56) scale(0.12 -0.12)">
     <defs>
      <path id="DejaVuSans-48" d="M 628 4666 
L 1259 4666 
L 1259 2753 
L 3553 2753 
L 3553 4666 
L 4184 4666 
L 4184 0 
L 3553 0 
L 3553 2222 
L 1259 2222 
L 1259 0 
L 628 0 
L 628 4666 
z
" transform="scale(0.015625)"/>
      <path id="DejaVuSans-69" d="M 603 3500 
L 1178 3500 
L 1178 0 
L 603 0 
L 603 3500 
z
M 603 4863 
L 1178 4863 
L 1178 4134 
L 603 4134 
L 603 4863 
z
" transform="scale(0.015625)"/>
      <path id="DejaVuSans-73" d="M 2834 3397 
L 2834 2853 
Q 2591 2978 2328 3040 
Q 2066 3103 1784 3103 
Q 1356 3103 1142 2972 
Q 928 2841 928 2578 
Q 928 2378 1081 2264 
Q 1234 2150 1697 2047 
L 1894 2003 
Q 2506 1872 2764 1633 
Q 3022 1394 3022 966 
Q 3022 478 2636 193 
Q 2250 -91 1575 -91 
Q 1294 -91 989 -36 
Q 684 19 347 128 
L 347 722 
Q 666 556 975 473 
Q 1284 391 1588 391 
Q 1994 391 2212 530 
Q 2431 669 2431 922 
Q 2431 1156 2273 1281 
Q 2116 1406 1581 1522 
L 1381 1569 
Q 847 1681 609 1914 
Q 372 2147 372 2553 
Q 372 3047 722 3315 
Q 1072 3584 1716 3584 
Q 2034 3584 2315 3537 
Q 2597 3491 2834 3397 
z
" transform="scale(0.015625)"/>
      <path id="DejaVuSans-74" d="M 1172 4494 
L 1172 3500 
L 2356 3500 
L 2356 3053 
L 1172 3053 
L 1172 1153 
Q 1172 725 1289 603 
Q 1406 481 1766 481 
L 2356 481 
L 2356 0 
L 1766 0 
Q 1100 0 847 248 
Q 594 497 594 1153 
L 594 3053 
L 172 3053 
L 172 3500 
L 594 3500 
L 594 4494 
L 1172 4494 
z
" transform="scale(0.015625)"/>
      <path id="DejaVuSans-6f" d="M 1959 3097 
Q 1497 3097 1228 2736 
Q 959 2375 959 1747 
Q 959 1119 1226 758 
Q 1494 397 1959 397 
Q 2419 397 2687 759 
Q 2956 1122 2956 1747 
Q 2956 2369 2687 2733 
Q 2419 3097 1959 3097 
z
M 1959 3584 
Q 2709 3584 3137 3096 
Q 3566 2609 3566 1747 
Q 3566 888 3137 398 
Q 2709 -91 1959 -91 
Q 1206 -91 779 398 
Q 353 888 353 1747 
Q 353 2609 779 3096 
Q 1206 3584 1959 3584 
z
" transform="scale(0.015625)"/>
      <path id="DejaVuSans-67" d="M 2906 1791 
Q 2906 2416 2648 2759 
Q 2391 3103 1925 3103 
Q 1463 3103 1205 2759 
Q 947 2416 947 1791 
Q 947 1169 1205 825 
Q 1463 481 1925 481 
Q 2391 481 2648 825 
Q 2906 1169 2906 1791 
z
M 3481 434 
Q 3481 -459 3084 -895 
Q 2688 -1331 1869 -1331 
Q 1566 -1331 1297 -1286 
Q 1028 -1241 775 -1147 
L 775 -588 
Q 1028 -725 1275 -790 
Q 1522 -856 1778 -856 
Q 2344 -856 2625 -561 
Q 2906 -266 2906 331 
L 2906 616 
Q 2728 306 2450 153 
Q 2172 0 1784 0 
Q 1141 0 747 490 
Q 353 981 353 1791 
Q 353 2603 747 3093 
Q 1141 3584 1784 3584 
Q 2172 3584 2450 3431 
Q 2728 3278 2906 2969 
L 2906 3500 
L 3481 3500 
L 3481 434 
z
" transform="scale(0.015625)"/>
      <path id="DejaVuSans-72" d="M 2631 2963 
Q 2534 3019 2420 3045 
Q 2306 3072 2169 3072 
Q 1681 3072 1420 2755 
Q 1159 2438 1159 1844 
L 1159 0 
L 581 0 
L 581 3500 
L 1159 3500 
L 1159 2956 
Q 1341 3275 1631 3429 
Q 1922 3584 2338 3584 
Q 2397 3584 2469 3576 
Q 2541 3569 2628 3553 
L 2631 2963 
z
" transform="scale(0.015625)"/>
      <path id="DejaVuSans-61" d="M 2194 1759 
Q 1497 1759 1228 1600 
Q 959 1441 959 1056 
Q 959 750 1161 570 
Q 1363 391 1709 391 
Q 2188 391 2477 730 
Q 2766 1069 2766 1631 
L 2766 1759 
L 2194 1759 
z
M 3341 1997 
L 3341 0 
L 2766 0 
L 2766 531 
Q 2569 213 2275 61 
Q 1981 -91 1556 -91 
Q 1019 -91 701 211 
Q 384 513 384 1019 
Q 384 1609 779 1909 
Q 1175 2209 1959 2209 
L 2766 2209 
L 2766 2266 
Q 2766 2663 2505 2880 
Q 2244 3097 1772 3097 
Q 1472 3097 1187 3025 
Q 903 2953 641 2809 
L 641 3341 
Q 956 3463 1253 3523 
Q 1550 3584 1831 3584 
Q 2591 3584 2966 3190 
Q 3341 2797 3341 1997 
z
" transform="scale(0.015625)"/>
      <path id="DejaVuSans-6d" d="M 3328 2828 
Q 3544 3216 3844 3400 
Q 4144 3584 4550 3584 
Q 5097 3584 5394 3201 
Q 5691 2819 5691 2113 
L 5691 0 
L 5113 0 
L 5113 2094 
Q 5113 2597 4934 2840 
Q 4756 3084 4391 3084 
Q 3944 3084 3684 2787 
Q 3425 2491 3425 1978 
L 3425 0 
L 2847 0 
L 2847 2094 
Q 2847 2600 2669 2842 
Q 2491 3084 2119 3084 
Q 1678 3084 1418 2786 
Q 1159 2488 1159 1978 
L 1159 0 
L 581 0 
L 581 3500 
L 1159 3500 
L 1159 2956 
Q 1356 3278 1631 3431 
Q 1906 3584 2284 3584 
Q 2666 3584 2933 3390 
Q 3200 3197 3328 2828 
z
" transform="scale(0.015625)"/>
      <path id="DejaVuSans-20" transform="scale(0.015625)"/>
      <path id="DejaVuSans-66" d="M 2375 4863 
L 2375 4384 
L 1825 4384 
Q 1516 4384 1395 4259 
Q 1275 4134 1275 3809 
L 1275 3500 
L 2222 3500 
L 2222 3053 
L 1275 3053 
L 1275 0 
L 697 0 
L 697 3053 
L 147 3053 
L 147 3500 
L 697 3500 
L 697 3744 
Q 697 4328 969 4595 
Q 1241 4863 1831 4863 
L 2375 4863 
z
" transform="scale(0.015625)"/>
      <path id="DejaVuSans-4c" d="M 628 4666 
L 1259 4666 
L 1259 531 
L 3531 531 
L 3531 0 
L 628 0 
L 628 4666 
z
" transform="scale(0.015625)"/>
      <path id="DejaVuSans-53" d="M 3425 4513 
L 3425 3897 
Q 3066 4069 2747 4153 
Q 2428 4238 2131 4238 
Q 1616 4238 1336 4038 
Q 1056 3838 1056 3469 
Q 1056 3159 1242 3001 
Q 1428 2844 1947 2747 
L 2328 2669 
Q 3034 2534 3370 2195 
Q 3706 1856 3706 1288 
Q 3706 609 3251 259 
Q 2797 -91 1919 -91 
Q 1588 -91 1214 -16 
Q 841 59 441 206 
L 441 856 
Q 825 641 1194 531 
Q 1563 422 1919 422 
Q 2459 422 2753 634 
Q 3047 847 3047 1241 
Q 3047 1584 2836 1778 
Q 2625 1972 2144 2069 
L 1759 2144 
Q 1053 2284 737 2584 
Q 422 2884 422 3419 
Q 422 4038 858 4394 
Q 1294 4750 2059 4750 
Q 2388 4750 2728 4690 
Q 3069 4631 3425 4513 
z
" transform="scale(0.015625)"/>
      <path id="DejaVuSans-42" d="M 1259 2228 
L 1259 519 
L 2272 519 
Q 2781 519 3026 730 
Q 3272 941 3272 1375 
Q 3272 1813 3026 2020 
Q 2781 2228 2272 2228 
L 1259 2228 
z
M 1259 4147 
L 1259 2741 
L 2194 2741 
Q 2656 2741 2882 2914 
Q 3109 3088 3109 3444 
Q 3109 3797 2882 3972 
Q 2656 4147 2194 4147 
L 1259 4147 
z
M 628 4666 
L 2241 4666 
Q 2963 4666 3353 4366 
Q 3744 4066 3744 3513 
Q 3744 3084 3544 2831 
Q 3344 2578 2956 2516 
Q 3422 2416 3680 2098 
Q 3938 1781 3938 1306 
Q 3938 681 3513 340 
Q 3088 0 2303 0 
L 628 0 
L 628 4666 
z
" transform="scale(0.015625)"/>
      <path id="DejaVuSans-5f" d="M 3263 -1063 
L 3263 -1509 
L -63 -1509 
L -63 -1063 
L 3263 -1063 
z
" transform="scale(0.015625)"/>
      <path id="DejaVuSans-65" d="M 3597 1894 
L 3597 1613 
L 953 1613 
Q 991 1019 1311 708 
Q 1631 397 2203 397 
Q 2534 397 2845 478 
Q 3156 559 3463 722 
L 3463 178 
Q 3153 47 2828 -22 
Q 2503 -91 2169 -91 
Q 1331 -91 842 396 
Q 353 884 353 1716 
Q 353 2575 817 3079 
Q 1281 3584 2069 3584 
Q 2775 3584 3186 3129 
Q 3597 2675 3597 1894 
z
M 3022 2063 
Q 3016 2534 2758 2815 
Q 2500 3097 2075 3097 
Q 1594 3097 1305 2825 
Q 1016 2553 972 2059 
L 3022 2063 
z
" transform="scale(0.015625)"/>
      <path id="DejaVuSans-6e" d="M 3513 2113 
L 3513 0 
L 2938 0 
L 2938 2094 
Q 2938 2591 2744 2837 
Q 2550 3084 2163 3084 
Q 1697 3084 1428 2787 
Q 1159 2491 1159 1978 
L 1159 0 
L 581 0 
L 581 3500 
L 1159 3500 
L 1159 2956 
Q 1366 3272 1645 3428 
Q 1925 3584 2291 3584 
Q 2894 3584 3203 3211 
Q 3513 2838 3513 2113 
z
" transform="scale(0.015625)"/>
      <path id="DejaVuSans-70" d="M 1159 525 
L 1159 -1331 
L 581 -1331 
L 581 3500 
L 1159 3500 
L 1159 2969 
Q 1341 3281 1617 3432 
Q 1894 3584 2278 3584 
Q 2916 3584 3314 3078 
Q 3713 2572 3713 1747 
Q 3713 922 3314 415 
Q 2916 -91 2278 -91 
Q 1894 -91 1617 61 
Q 1341 213 1159 525 
z
M 3116 1747 
Q 3116 2381 2855 2742 
Q 2594 3103 2138 3103 
Q 1681 3103 1420 2742 
Q 1159 2381 1159 1747 
Q 1159 1113 1420 752 
Q 1681 391 2138 391 
Q 2594 391 2855 752 
Q 3116 1113 3116 1747 
z
" transform="scale(0.015625)"/>
      <path id="DejaVuSans-68" d="M 3513 2113 
L 3513 0 
L 2938 0 
L 2938 2094 
Q 2938 2591 2744 2837 
Q 2550 3084 2163 3084 
Q 1697 3084 1428 2787 
Q 1159 2491 1159 1978 
L 1159 0 
L 581 0 
L 581 4863 
L 1159 4863 
L 1159 2956 
Q 1366 3272 1645 3428 
Q 1925 3584 2291 3584 
Q 2894 3584 3203 3211 
Q 3513 2838 3513 2113 
z
" transform="scale(0.015625)"/>
      <path id="DejaVuSans-79" d="M 2059 -325 
Q 1816 -950 1584 -1140 
Q 1353 -1331 966 -1331 
L 506 -1331 
L 506 -850 
L 844 -850 
Q 1081 -850 1212 -737 
Q 1344 -625 1503 -206 
L 1606 56 
L 191 3500 
L 800 3500 
L 1894 763 
L 2988 3500 
L 3597 3500 
L 2059 -325 
z
" transform="scale(0.015625)"/>
      <path id="DejaVuSans-49" d="M 628 4666 
L 1259 4666 
L 1259 0 
L 628 0 
L 628 4666 
z
" transform="scale(0.015625)"/>
     </defs>
     <use xlink:href="#DejaVuSans-48"/>
     <use xlink:href="#DejaVuSans-69" x="75.195312"/>
     <use xlink:href="#DejaVuSans-73" x="102.978516"/>
     <use xlink:href="#DejaVuSans-74" x="155.078125"/>
     <use xlink:href="#DejaVuSans-6f" x="194.287109"/>
     <use xlink:href="#DejaVuSans-67" x="255.46875"/>
     <use xlink:href="#DejaVuSans-72" x="318.945312"/>
     <use xlink:href="#DejaVuSans-61" x="360.058594"/>
     <use xlink:href="#DejaVuSans-6d" x="421.337891"/>
     <use xlink:href="#DejaVuSans-20" x="518.75"/>
     <use xlink:href="#DejaVuSans-6f" x="550.537109"/>
     <use xlink:href="#DejaVuSans-66" x="611.71875"/>
     <use xlink:href="#DejaVuSans-20" x="646.923828"/>
     <use xlink:href="#DejaVuSans-4c" x="678.710938"/>
     <use xlink:href="#DejaVuSans-53" x="734.423828"/>
     <use xlink:href="#DejaVuSans-42" x="797.900391"/>
     <use xlink:href="#DejaVuSans-5f" x="866.503906"/>
     <use xlink:href="#DejaVuSans-53" x="916.503906"/>
     <use xlink:href="#DejaVuSans-74" x="979.980469"/>
     <use xlink:href="#DejaVuSans-65" x="1019.189453"/>
     <use xlink:href="#DejaVuSans-67" x="1080.712891"/>
     <use xlink:href="#DejaVuSans-61" x="1144.189453"/>
     <use xlink:href="#DejaVuSans-6e" x="1205.46875"/>
     <use xlink:href="#DejaVuSans-6f" x="1268.847656"/>
     <use xlink:href="#DejaVuSans-67" x="1330.029297"/>
     <use xlink:href="#DejaVuSans-72" x="1393.505859"/>
     <use xlink:href="#DejaVuSans-61" x="1434.619141"/>
     <use xlink:href="#DejaVuSans-70" x="1495.898438"/>
     <use xlink:href="#DejaVuSans-68" x="1559.375"/>
     <use xlink:href="#DejaVuSans-79" x="1622.753906"/>
     <use xlink:href="#DejaVuSans-20" x="1681.933594"/>
     <use xlink:href="#DejaVuSans-49" x="1713.720703"/>
     <use xlink:href="#DejaVuSans-6d" x="1743.212891"/>
     <use xlink:href="#DejaVuSans-61" x="1840.625"/>
     <use xlink:href="#DejaVuSans-67" x="1901.904297"/>
     <use xlink:href="#DejaVuSans-65" x="1965.380859"/>
    </g>
   </g>
  </g>
 </g>
 <defs>
  <clipPath id="p2213b4cafd">
   <rect x="54" y="34.56" width="334.8" height="221.76"/>
  </clipPath>
 </defs>
</svg>
